<svg width="16" height="19" viewBox="0 0 16 19" fill="none" xmlns="http://www.w3.org/2000/svg">
<path d="M11.3723 4.59381C11.5468 4.59381 11.8442 4.62239 12.2645 4.67956C12.6848 4.73673 13.1447 4.90006 13.6443 5.16957C14.1519 5.4309 14.6118 5.86783 15.0242 6.48034C15.0004 6.50484 14.8854 6.59467 14.6792 6.74984C14.473 6.89684 14.2431 7.11734 13.9893 7.41135C13.7355 7.69718 13.5135 8.06469 13.3232 8.51386C13.1328 8.95487 13.0377 9.48162 13.0377 10.0941C13.0377 10.7965 13.1566 11.3926 13.3945 11.8827C13.6404 12.3727 13.9219 12.7688 14.2391 13.0709C14.5642 13.3649 14.8497 13.5813 15.0956 13.7202C15.3493 13.859 15.4841 13.9325 15.5 13.9407C15.4921 13.9734 15.389 14.2633 15.1907 14.8104C15.0004 15.3576 14.6832 15.966 14.2391 16.6357C13.8505 17.2156 13.4302 17.7505 12.9782 18.2405C12.5341 18.7305 11.9988 18.9755 11.3723 18.9755C10.952 18.9755 10.6071 18.9142 10.3374 18.7917C10.0678 18.6611 9.79025 18.5345 9.50476 18.412C9.21927 18.2813 8.83465 18.216 8.35091 18.216C7.88303 18.216 7.49048 18.2813 7.17328 18.412C6.864 18.5427 6.56661 18.6733 6.28113 18.804C6.00357 18.9347 5.67446 19 5.29381 19C4.71491 19 4.20738 18.7632 3.77121 18.2895C3.33505 17.8158 2.88699 17.2482 2.42704 16.5867C1.89572 15.8027 1.43973 14.8472 1.05908 13.7202C0.68636 12.585 0.5 11.4417 0.5 10.2901C0.5 9.05695 0.726011 8.02386 1.17803 7.19084C1.63006 6.34967 2.20896 5.71674 2.91475 5.29207C3.62847 4.85923 4.36598 4.64281 5.12728 4.64281C5.53172 4.64281 5.91237 4.71223 6.26923 4.85106C6.62609 4.98173 6.95916 5.11648 7.26844 5.25532C7.58565 5.39415 7.87113 5.46357 8.1249 5.46357C8.37074 5.46357 8.65623 5.39007 8.98136 5.24307C9.3065 5.09607 9.67129 4.95315 10.0757 4.81431C10.4802 4.66731 10.9124 4.59381 11.3723 4.59381ZM10.7181 3.03804C10.4088 3.42188 10.0202 3.74447 9.55234 4.0058C9.08446 4.25897 8.64036 4.38556 8.22006 4.38556C8.13283 4.38556 8.04956 4.37739 7.97026 4.36106C7.96233 4.33656 7.9544 4.29164 7.94647 4.22631C7.93854 4.16097 7.93458 4.09155 7.93458 4.01805C7.93458 3.52805 8.03767 3.05437 8.24385 2.59703C8.45004 2.13153 8.68398 1.74769 8.94568 1.44552C9.27875 1.03718 9.69905 0.698259 10.2066 0.428756C10.7141 0.159252 11.1979 0.0163335 11.6578 0C11.6816 0.106168 11.6935 0.232753 11.6935 0.379755C11.6935 0.869761 11.6023 1.34752 11.4199 1.81302C11.2375 2.27036 11.0036 2.6787 10.7181 3.03804Z" fill="black"/>
</svg>
