<svg width="18" height="19" viewBox="0 0 18 19" fill="none" xmlns="http://www.w3.org/2000/svg">
<path fill-rule="evenodd" clip-rule="evenodd" d="M15.5939 12.7229C15.5939 12.1094 16.0914 11.6119 16.7049 11.6119C17.3184 11.6119 17.8159 12.1094 17.8159 12.7229V14.9292C17.8159 17.1726 15.9886 19 13.7443 19H4.07077C1.82738 19 0 17.1727 0 14.9292V12.7229C0 12.1094 0.497541 11.6119 1.11102 11.6119C1.72452 11.6119 2.22204 12.1094 2.22204 12.7229V14.9292C2.22204 15.9457 3.05428 16.7779 4.07073 16.7779H13.7451C14.7616 16.7779 15.5938 15.9465 15.5938 14.9292L15.5939 12.7229ZM5.12013 10.6883L8.09384 13.4795C8.29697 13.6974 8.58643 13.834 8.90799 13.834C9.22956 13.834 9.51901 13.6974 9.72133 13.4795L12.695 10.6883C13.1408 10.2689 13.1622 9.56743 12.7427 9.1217C12.3233 8.67597 11.6218 8.65458 11.1761 9.07401L10.0182 10.1604V1.11102C10.0182 0.49752 9.52066 0 8.90719 0C8.29369 0 7.79617 0.497541 7.79617 1.11102V10.1595L6.63826 9.07316C6.19253 8.65375 5.49105 8.67514 5.07164 9.12086C4.65222 9.56659 4.67361 10.2681 5.11933 10.6875L5.12013 10.6883Z" fill="white"/>
</svg>
