<svg width="14" height="14" viewBox="0 0 14 14" fill="none" xmlns="http://www.w3.org/2000/svg">
<path fill-rule="evenodd" clip-rule="evenodd" d="M3.86795 5.08272C3.86795 5.3985 3.61216 5.6543 3.29637 5.6543C2.98058 5.6543 2.72479 5.3985 2.72479 5.08272V3.58411C2.72479 2.48168 3.62234 1.5835 4.72481 1.5835H8.39252C8.46779 1.21113 8.67322 0.890817 8.98221 0.655957C9.38288 0.351484 9.86506 0.258675 10.3484 0.393933L12.4158 0.970615C13.3982 1.24452 13.9998 2.17151 13.9998 3.16521V10.9303C13.9998 11.9682 13.3366 12.9224 12.3009 13.1607L10.2794 13.6259C9.80572 13.7351 9.3326 13.627 8.95344 13.3248C8.70442 13.1267 8.5273 12.8721 8.43392 12.5767H4.72478C3.62236 12.5767 2.72476 11.6791 2.72476 10.5761V9.07687C2.72476 8.76108 2.98055 8.50529 3.29634 8.50529C3.61213 8.50529 3.86792 8.76108 3.86792 9.07687V10.5761C3.86792 11.0475 4.25332 11.4334 4.72474 11.4334H8.36086V2.72663H4.72474C4.25332 2.72663 3.86792 3.11259 3.86792 3.58401L3.86795 5.08272ZM10.0813 6.60161V7.4239C10.0813 7.73969 10.3371 7.99548 10.6529 7.99548C10.9687 7.99548 11.2245 7.73969 11.2245 7.4239V6.60161C11.2245 6.28582 10.9687 6.03002 10.6529 6.03002C10.3371 6.03002 10.0813 6.28582 10.0813 6.60161ZM4.98003 5.46919L5.93645 6.5088L1.23809 6.50823C0.922299 6.50823 0.666504 6.76403 0.666504 7.07982C0.666504 7.3956 0.922299 7.6514 1.23809 7.6514H5.93703L4.98061 8.69101C4.76725 8.92304 4.78253 9.28352 5.014 9.49688C5.24603 9.71024 5.60652 9.69496 5.81988 9.46349C6.42485 8.80645 7.03605 8.15168 7.63649 7.49013C7.74345 7.386 7.80966 7.24111 7.80966 7.0804C7.80966 6.91798 7.74231 6.77141 7.63308 6.66783L5.8198 4.69722C5.60644 4.46518 5.24539 4.45048 5.01392 4.66383C4.78189 4.87719 4.76718 5.23823 4.98054 5.4697L4.98003 5.46919ZM12.6404 2.4443C12.5142 2.26603 12.3342 2.13078 12.1118 2.06852L10.045 1.49184C9.90806 1.45392 9.78186 1.47713 9.66981 1.56201C9.55663 1.64804 9.50344 1.7584 9.50344 1.90271V12.0973C9.50344 12.2399 9.55211 12.3423 9.66303 12.4306C9.77452 12.5194 9.88658 12.5449 10.0247 12.5127L12.0461 12.0475C12.5583 11.9298 12.8565 11.447 12.8565 10.9292L12.8571 3.16466C12.8571 2.89471 12.7807 2.64174 12.6409 2.44423L12.6404 2.4443Z" fill="#FF4A4A"/>
</svg>
