<svg width="19" height="19" viewBox="0 0 19 19" fill="none" xmlns="http://www.w3.org/2000/svg">
<path d="M9.5 3.76042C10.9012 3.76042 12.156 4.24333 13.1456 5.18542L15.8571 2.47396C14.2104 0.942083 12.061 0 9.5 0C5.78708 0 2.57687 2.12958 1.01333 5.23292L4.17208 7.68313C4.92021 5.43083 7.02208 3.76042 9.5 3.76042Z" fill="#EA4335"/>
<path d="M18.5963 9.71771C18.5963 9.09625 18.5369 8.49458 18.4458 7.91667H9.5V11.4871H14.6221C14.3925 12.6588 13.7275 13.6563 12.73 14.3292L15.7898 16.7042C17.575 15.0496 18.5963 12.6033 18.5963 9.71771Z" fill="#4285F4"/>
<path d="M4.16813 11.3169C3.97813 10.7429 3.86729 10.1333 3.86729 9.5C3.86729 8.86667 3.97417 8.25708 4.16813 7.68312L1.00937 5.23292C0.364167 6.51542 0 7.96417 0 9.5C0 11.0358 0.364167 12.4846 1.01333 13.7671L4.16813 11.3169Z" fill="#FBBC05"/>
<path d="M9.5 19C12.065 19 14.2223 18.1569 15.7898 16.7002L12.73 14.3252C11.879 14.8992 10.7825 15.2356 9.5 15.2356C7.02208 15.2356 4.92021 13.5652 4.16812 11.3129L1.00937 13.7631C2.57687 16.8704 5.78708 19 9.5 19Z" fill="#34A853"/>
</svg>
