<svg width="163" height="24" viewBox="0 0 163 24" fill="none" xmlns="http://www.w3.org/2000/svg">
<path d="M33.3238 18.7952V3.18072H35.7961L43.2671 14.4795V3.18072H45.7394V18.7952H43.2671L35.7961 7.48554V18.7952H33.3238Z" fill="black"/>
<path d="M54.0431 19.1205C52.8648 19.1205 51.831 18.8639 50.9419 18.3506C50.0599 17.8373 49.3696 17.1253 48.8708 16.2145C48.3792 15.3036 48.1334 14.2482 48.1334 13.0482C48.1334 11.7687 48.3756 10.659 48.8599 9.71928C49.3515 8.77952 50.031 8.05301 50.8985 7.53976C51.766 7.01928 52.7708 6.75904 53.913 6.75904C55.113 6.75904 56.1358 7.04096 56.9816 7.60482C57.8274 8.16144 58.4563 8.95301 58.8684 9.97952C59.2877 11.006 59.4503 12.2205 59.3563 13.6229H56.9274V12.7337C56.913 11.4181 56.6708 10.453 56.2009 9.83855C55.731 9.21687 55.0009 8.90602 54.0106 8.90602C52.9118 8.90602 52.0877 9.2494 51.5383 9.93614C50.9961 10.6229 50.725 11.6241 50.725 12.9398C50.725 14.1759 50.9961 15.1337 51.5383 15.8133C52.0877 16.4855 52.8792 16.8217 53.913 16.8217C54.5925 16.8217 55.178 16.6699 55.6696 16.3663C56.1612 16.0627 56.5407 15.6253 56.8081 15.0542L59.2154 15.8024C58.7599 16.8506 58.066 17.6675 57.1334 18.253C56.2081 18.8313 55.178 19.1205 54.0431 19.1205ZM49.9443 13.6229V11.747H58.1527V13.6229H49.9443Z" fill="black"/>
<path d="M63.1373 24L65.4035 17.8193L65.4361 19.641L60.3288 7.08434H62.877L66.5963 16.5723H65.9023L69.4807 7.08434H71.9421L65.4469 24H63.1373Z" fill="black"/>
<path d="M73.584 18.7952V7.08434H75.7527V9.9253L75.4708 9.55663C75.6153 9.17349 75.8033 8.82289 76.0346 8.50482C76.2732 8.18675 76.5551 7.92651 76.8804 7.7241C77.1696 7.51446 77.4912 7.35542 77.8455 7.24699C78.2069 7.13132 78.5756 7.06265 78.9515 7.04096C79.3274 7.01205 79.6925 7.02651 80.0467 7.08434V9.36145C79.678 9.26024 79.2623 9.23133 78.7997 9.2747C78.3443 9.31807 77.9286 9.45542 77.5527 9.68675C77.1912 9.90361 76.8985 10.1747 76.6744 10.5C76.4575 10.8181 76.2985 11.1795 76.1973 11.5843C76.0961 11.9819 76.0455 12.4084 76.0455 12.8639V18.7952H73.584Z" fill="black"/>
<path d="M86.5812 19.1205C85.4101 19.1205 84.3908 18.8566 83.5233 18.3289C82.6559 17.8012 81.9836 17.0747 81.5065 16.1494C81.0366 15.2169 80.8016 14.1434 80.8016 12.9289C80.8016 11.7072 81.0438 10.6337 81.5282 9.70843C82.0125 8.7759 82.6884 8.05301 83.5559 7.53976C84.4233 7.01928 85.4318 6.75904 86.5812 6.75904C87.7595 6.75904 88.7824 7.02289 89.6498 7.5506C90.5173 8.07831 91.1896 8.80482 91.6667 9.73012C92.1438 10.6554 92.3824 11.7217 92.3824 12.9289C92.3824 14.1506 92.1402 15.2277 91.6559 16.1602C91.1787 17.0855 90.5028 17.812 89.6281 18.3398C88.7607 18.8602 87.745 19.1205 86.5812 19.1205ZM86.5812 16.8217C87.6583 16.8217 88.4607 16.4602 88.9884 15.7373C89.5233 15.0145 89.7908 14.0783 89.7908 12.9289C89.7908 11.7506 89.5233 10.8108 88.9884 10.1096C88.4535 9.4012 87.651 9.04699 86.5812 9.04699C85.851 9.04699 85.251 9.21325 84.7812 9.54578C84.3113 9.87108 83.9607 10.3265 83.7294 10.912C83.5053 11.4904 83.3932 12.1627 83.3932 12.9289C83.3932 14.1145 83.6607 15.0614 84.1956 15.7699C84.7378 16.4711 85.533 16.8217 86.5812 16.8217Z" fill="black"/>
<path d="M99.8153 19.4718C99.1561 19.4718 98.6919 19.3287 98.423 19.0424C98.1541 18.7561 98.0197 18.3484 98.0197 17.8193C98.0197 17.6024 98.0674 17.2467 98.1628 16.7523C98.2669 16.2492 98.3927 15.668 98.5401 15.0087C98.6963 14.3494 98.8611 13.6641 99.0346 12.9528C99.2168 12.2414 99.3816 11.5605 99.5291 10.9099C99.6765 10.2593 99.798 9.69542 99.8934 9.21831C99.9975 8.73253 100.05 8.39855 100.05 8.21638C100.05 7.98217 99.9801 7.81735 99.8413 7.72193C99.7112 7.62651 99.4857 7.57879 99.1647 7.57879C98.6703 7.57879 98.1671 7.61783 97.6553 7.6959C97.1435 7.7653 96.636 7.8 96.1329 7.8C95.8727 7.8 95.6341 7.74361 95.4173 7.63084C95.2091 7.5094 95.0442 7.34024 94.9228 7.12337C94.8013 6.89783 94.7406 6.62891 94.7406 6.31663C94.7406 5.79614 94.9488 5.3494 95.3652 4.97639C95.7903 4.60337 96.3585 4.29976 97.0698 4.06554C97.7898 3.82265 98.5965 3.63614 99.49 3.50602C100.392 3.36723 101.325 3.27181 102.288 3.21976C103.251 3.15903 104.179 3.12867 105.072 3.12867C105.775 3.12867 106.464 3.14602 107.141 3.18072C107.818 3.20675 108.451 3.26313 109.041 3.34988C109.639 3.43663 110.164 3.56241 110.615 3.72723C111.066 3.89205 111.418 4.11325 111.669 4.39084C111.93 4.65976 112.06 4.99807 112.06 5.40578C112.06 5.86554 111.951 6.28193 111.734 6.65494C111.526 7.01928 111.231 7.30988 110.85 7.52675C110.468 7.74361 110.025 7.85205 109.522 7.85205C109.045 7.85205 108.677 7.84337 108.416 7.82602C108.165 7.80867 107.852 7.8 107.479 7.8C106.968 7.8 106.577 7.85639 106.308 7.96916C106.048 8.07325 105.844 8.27277 105.697 8.56771C105.549 8.85398 105.397 9.27036 105.241 9.81687C105.155 10.1552 105.055 10.5108 104.942 10.8839C104.829 11.2569 104.708 11.6429 104.578 12.0419C104.456 12.4323 104.326 12.8313 104.187 13.239C104.049 13.6381 103.91 14.0328 103.771 14.4231C103.632 14.8135 103.493 15.1908 103.355 15.5552C103.216 15.9108 103.081 16.2492 102.951 16.5701C102.821 16.8911 102.695 17.1773 102.574 17.4289C102.288 17.9234 102.01 18.3224 101.741 18.626C101.472 18.921 101.186 19.1335 100.882 19.2636C100.579 19.4024 100.223 19.4718 99.8153 19.4718Z" fill="black"/>
<path d="M114.284 20.3046C113.607 20.3046 112.969 20.2439 112.371 20.1224C111.772 20.0096 111.239 19.8188 110.77 19.5499C110.311 19.2896 109.946 18.9426 109.677 18.5089C109.417 18.0752 109.287 17.5504 109.287 16.9345C109.287 16.0149 109.521 15.2559 109.99 14.6573C110.467 14.0501 111.091 13.5773 111.863 13.239C112.644 12.9007 113.507 12.6622 114.453 12.5234C115.407 12.3846 116.366 12.3152 117.329 12.3152C117.571 12.3152 117.819 12.3239 118.07 12.3412C118.33 12.3586 118.565 12.3759 118.773 12.3933C118.99 12.4019 119.15 12.4063 119.254 12.4063C119.523 12.4063 119.701 12.3239 119.788 12.159C119.883 11.9942 119.931 11.773 119.931 11.4954C119.931 11.3566 119.914 11.2308 119.879 11.1181C119.853 11.0053 119.805 10.9012 119.736 10.8058C119.675 10.7104 119.597 10.628 119.502 10.5586C119.285 10.3851 118.998 10.2593 118.643 10.1812C118.287 10.0945 117.888 10.0511 117.446 10.0511C116.899 10.0511 116.366 10.1075 115.845 10.2202C115.333 10.333 114.839 10.4501 114.362 10.5716C113.893 10.6843 113.442 10.7407 113.009 10.7407C112.384 10.7407 111.92 10.6323 111.616 10.4154C111.321 10.1986 111.174 9.89928 111.174 9.51759C111.174 9.01446 111.365 8.57639 111.746 8.20337C112.137 7.83036 112.657 7.51807 113.308 7.26651C113.958 7.00626 114.678 6.81108 115.468 6.68096C116.266 6.55084 117.068 6.48578 117.875 6.48578C119.237 6.48578 120.395 6.6159 121.349 6.87614C122.303 7.12771 123.028 7.54843 123.522 8.13831C124.025 8.71952 124.277 9.50891 124.277 10.5065C124.277 10.9489 124.221 11.4 124.108 11.8598C123.995 12.3195 123.861 12.7663 123.704 13.2C123.557 13.6251 123.427 14.0111 123.314 14.3581C123.201 14.6964 123.145 14.9653 123.145 15.1648C123.145 15.347 123.184 15.5335 123.262 15.7243C123.349 15.9065 123.449 16.1017 123.561 16.3099C123.674 16.5181 123.774 16.7349 123.861 16.9605C123.947 17.186 123.991 17.4289 123.991 17.6892C123.991 18.2443 123.804 18.6651 123.431 18.9513C123.067 19.2463 122.633 19.3937 122.13 19.3937C121.8 19.3937 121.549 19.3027 121.375 19.1205C121.21 18.9383 121.072 18.7561 120.959 18.574C120.855 18.3918 120.712 18.3007 120.529 18.3007C120.399 18.3007 120.243 18.3398 120.061 18.4178C119.879 18.4872 119.658 18.6043 119.397 18.7692C119.111 18.96 118.729 19.1725 118.252 19.4067C117.775 19.6496 117.207 19.8578 116.548 20.0313C115.889 20.2135 115.134 20.3046 114.284 20.3046ZM115.182 17.507C115.581 17.507 115.997 17.4419 116.431 17.3118C116.864 17.173 117.272 16.9822 117.654 16.7393C118.036 16.4964 118.343 16.2231 118.578 15.9195C118.821 15.6072 118.942 15.2776 118.942 14.9306C118.942 14.7484 118.864 14.614 118.708 14.5272C118.56 14.4318 118.335 14.3711 118.031 14.3451C117.736 14.319 117.368 14.306 116.925 14.306C116.344 14.306 115.78 14.3711 115.234 14.5012C114.696 14.6313 114.253 14.8482 113.906 15.1518C113.559 15.4467 113.386 15.8501 113.386 16.3619C113.386 16.6222 113.455 16.839 113.594 17.0125C113.742 17.1773 113.95 17.3031 114.219 17.3899C114.496 17.468 114.817 17.507 115.182 17.507Z" fill="black"/>
<path d="M128.908 19.5108C128.04 19.5108 127.329 19.3851 126.774 19.1335C126.218 18.8819 125.806 18.4872 125.537 17.9494C125.277 17.4029 125.147 16.6916 125.147 15.8154C125.147 15.3643 125.182 14.8439 125.251 14.254C125.329 13.6554 125.429 13.0265 125.551 12.3672C125.672 11.6993 125.802 11.04 125.941 10.3894C126.088 9.7388 126.231 9.13157 126.37 8.56771C126.518 7.99518 126.648 7.50506 126.761 7.09735C127.021 6.09108 127.294 5.23663 127.58 4.53397C127.867 3.83132 128.227 3.30217 128.66 2.94651C129.103 2.58217 129.662 2.4 130.339 2.4C130.938 2.4 131.367 2.52144 131.627 2.76434C131.896 2.99855 132.031 3.38024 132.031 3.9094C132.031 4.24771 131.97 4.70313 131.848 5.27566C131.727 5.83952 131.571 6.47277 131.38 7.17542C131.189 7.8694 130.985 8.59373 130.768 9.34843C130.56 10.1031 130.361 10.8448 130.17 11.5735C129.979 12.2935 129.823 12.9614 129.701 13.5773C129.589 14.1846 129.532 14.692 129.532 15.0998C129.532 15.3253 129.55 15.5248 129.584 15.6983C129.619 15.8631 129.671 16.0019 129.74 16.1147C129.818 16.2188 129.914 16.2969 130.027 16.3489C130.139 16.401 130.27 16.427 130.417 16.427C130.712 16.427 130.994 16.3706 131.263 16.2578C131.532 16.1364 131.792 16.0149 132.044 15.8935C132.295 15.772 132.542 15.7113 132.785 15.7113C133.028 15.7113 133.202 15.7851 133.306 15.9325C133.41 16.08 133.462 16.2839 133.462 16.5441C133.462 16.9778 133.323 17.3769 133.045 17.7412C132.768 18.0969 132.404 18.4092 131.952 18.6781C131.501 18.9383 131.007 19.1422 130.469 19.2896C129.94 19.4371 129.419 19.5108 128.908 19.5108Z" fill="black"/>
<path d="M136.034 19.2376C135.539 19.2376 135.14 19.1682 134.837 19.0294C134.542 18.8993 134.329 18.6998 134.199 18.4308C134.069 18.1619 134.004 17.8323 134.004 17.4419C134.004 17.1904 134.039 16.8737 134.108 16.492C134.177 16.1017 134.268 15.6723 134.381 15.2039C134.494 14.7354 134.624 14.2583 134.772 13.7725C134.919 13.2781 135.071 12.7966 135.227 12.3282C135.392 11.8511 135.552 11.4173 135.708 11.027C135.873 10.6366 136.025 10.3157 136.164 10.0641C136.58 9.37012 137.057 8.8453 137.595 8.48964C138.133 8.13398 138.801 7.95614 139.599 7.95614C140.189 7.95614 140.627 8.12964 140.913 8.47663C141.2 8.81494 141.343 9.29205 141.343 9.90795C141.343 10.1682 141.304 10.5108 141.226 10.9359C141.147 11.3523 141.039 11.8207 140.9 12.3412C140.77 12.853 140.618 13.3778 140.445 13.9157C140.271 14.4535 140.085 14.974 139.885 15.4771C139.694 15.9716 139.499 16.4226 139.3 16.8304C139.1 17.2381 138.909 17.5634 138.727 17.8063C138.354 18.3094 137.96 18.6737 137.543 18.8993C137.127 19.1248 136.624 19.2376 136.034 19.2376ZM140.002 6.38169C139.1 6.38169 138.458 6.23422 138.077 5.93928C137.704 5.63566 137.517 5.29301 137.517 4.91132C137.517 4.29542 137.73 3.78795 138.155 3.38892C138.58 2.98988 139.109 2.69494 139.742 2.5041C140.375 2.31325 141.009 2.21783 141.642 2.21783C142.041 2.21783 142.414 2.27855 142.761 2.4C143.108 2.51277 143.39 2.6906 143.607 2.93349C143.824 3.17638 143.932 3.49301 143.932 3.88337C143.932 4.47325 143.741 4.9547 143.36 5.32771C142.987 5.69205 142.501 5.96096 141.902 6.13446C141.304 6.29928 140.67 6.38169 140.002 6.38169Z" fill="black"/>
<path d="M142.424 19.1335C142.051 19.1335 141.752 19.0598 141.526 18.9123C141.301 18.7735 141.14 18.5783 141.045 18.3267C140.95 18.0752 140.902 17.7846 140.902 17.4549C140.902 17.1166 140.954 16.7089 141.058 16.2318C141.162 15.7547 141.305 15.2429 141.487 14.6964C141.67 14.1412 141.873 13.5904 142.099 13.0439C142.325 12.4973 142.563 11.9855 142.815 11.5084C143.066 11.0226 143.309 10.6063 143.543 10.2593C144.324 9.17494 145.126 8.36386 145.951 7.82602C146.783 7.27952 147.712 7.00626 148.735 7.00626C149.412 7.00626 149.95 7.15807 150.349 7.46169C150.748 7.75663 151.043 8.14265 151.233 8.61976C151.424 9.09687 151.55 9.60434 151.611 10.1422C151.663 10.5499 151.741 10.9055 151.845 11.2092C151.958 11.5128 152.14 11.6646 152.392 11.6646C152.678 11.6646 152.968 11.5388 153.263 11.2872C153.558 11.027 153.897 10.6583 154.278 10.1812C154.747 9.59132 155.224 9.06651 155.71 8.60675C156.195 8.14699 156.725 7.78699 157.297 7.52675C157.87 7.26651 158.516 7.13639 159.236 7.13639C159.991 7.13639 160.598 7.27952 161.058 7.56578C161.526 7.84337 161.864 8.24241 162.072 8.76289C162.281 9.28337 162.385 9.89928 162.385 10.6106C162.385 11.1224 162.333 11.6863 162.229 12.3022C162.125 12.9181 161.981 13.547 161.799 14.1889C161.617 14.8308 161.409 15.4467 161.175 16.0366C160.949 16.6178 160.715 17.1383 160.472 17.5981C160.177 18.1186 159.843 18.5046 159.47 18.7561C159.106 19.0077 158.659 19.1335 158.13 19.1335C157.566 19.1335 157.141 18.9817 156.855 18.6781C156.568 18.3745 156.425 17.932 156.425 17.3508C156.425 17.2381 156.456 17.0602 156.516 16.8173C156.586 16.5745 156.668 16.2969 156.764 15.9846C156.868 15.6636 156.967 15.334 157.063 14.9957C157.158 14.6487 157.236 14.3104 157.297 13.9807C157.366 13.6511 157.401 13.3561 157.401 13.0959C157.401 12.8357 157.379 12.6188 157.336 12.4453C157.293 12.2718 157.223 12.1373 157.128 12.0419C157.032 11.9465 156.911 11.8988 156.764 11.8988C156.529 11.8988 156.282 12.0159 156.022 12.2501C155.762 12.4843 155.493 12.788 155.215 13.161C154.938 13.534 154.651 13.9287 154.356 14.3451C153.81 15.1605 153.294 15.759 152.808 16.1407C152.331 16.5137 151.75 16.7002 151.064 16.7002C150.37 16.7002 149.893 16.5007 149.633 16.1017C149.373 15.7027 149.225 15.1822 149.191 14.5402C149.165 14.0371 149.126 13.6034 149.073 13.239C149.021 12.8747 148.935 12.5928 148.813 12.3933C148.692 12.1851 148.514 12.081 148.28 12.081C148.054 12.081 147.816 12.1851 147.564 12.3933C147.321 12.6014 147.065 12.9094 146.796 13.3171C146.536 13.7508 146.293 14.1976 146.068 14.6573C145.842 15.1171 145.643 15.5682 145.469 16.0106C145.296 16.453 145.139 16.8651 145.001 17.2467C144.688 17.932 144.35 18.4178 143.986 18.7041C143.621 18.9904 143.101 19.1335 142.424 19.1335Z" fill="black"/>
<path d="M22.5032 13.8739L13.6074 10.6191C13.1016 10.4342 12.7039 10.0365 12.5155 9.52721L9.26069 0.631426C9.12114 0.254664 8.76182 0 8.36064 0C8.24901 0 8.13738 0.0209313 8.03272 0.0593052C7.53735 0.240709 7.27919 0.791899 7.4606 1.29076L10.2793 8.99346L3.81856 2.53617C3.63716 2.35477 3.39645 2.2536 3.14178 2.2536C2.88712 2.2536 2.64292 2.35477 2.465 2.53617C2.2836 2.71758 2.18243 2.95828 2.18243 3.21295C2.18243 3.46761 2.2836 3.71181 2.465 3.88973L9.19092 10.6156L1.31379 7.46897C1.19866 7.42362 1.08005 7.3992 0.957954 7.3992C0.563749 7.3992 0.214895 7.63642 0.0683758 8.00272C-0.126983 8.4946 0.110238 9.05277 0.602123 9.24813L9.35837 12.7506C9.82234 12.9355 10.1921 13.3088 10.377 13.7693L13.8795 22.5255C14.026 22.8918 14.3749 23.129 14.7691 23.129C14.8912 23.129 15.0098 23.1046 15.1249 23.0593C15.3621 22.9651 15.5505 22.7837 15.6517 22.5465C15.7529 22.3092 15.7564 22.0511 15.6622 21.8139L12.512 13.9402L19.2379 20.6661C19.4193 20.8475 19.66 20.9487 19.9147 20.9487C20.1694 20.9487 20.4136 20.8475 20.5915 20.6661C20.9647 20.2929 20.9647 19.6824 20.5915 19.3091L14.1377 12.8553L21.8404 15.674C21.945 15.7124 22.0567 15.7333 22.1683 15.7333C22.5695 15.7333 22.9323 15.4787 23.0683 15.1019C23.2497 14.6065 22.9951 14.0519 22.4962 13.8704L22.5032 13.8739ZM22.573 15.3426C22.573 15.3426 22.559 15.3496 22.552 15.3566C22.559 15.3531 22.566 15.3496 22.573 15.3426ZM12.2678 9.61791L9.013 0.71864L12.2678 9.61442V9.61791ZM8.91881 0.547701C8.91881 0.547701 8.90137 0.523281 8.8909 0.512816C8.90137 0.523281 8.90834 0.533747 8.91881 0.547701ZM8.75834 0.390717C8.75834 0.390717 8.74438 0.38374 8.7374 0.376763C8.74438 0.380251 8.75136 0.38374 8.75834 0.390717ZM8.5874 0.303503C8.5874 0.303503 8.56298 0.293038 8.55251 0.289549C8.56647 0.293038 8.57693 0.296526 8.5874 0.303503ZM8.37111 0.265129C8.3432 0.265129 8.31878 0.265129 8.29087 0.268618C8.31529 0.268618 8.33622 0.261641 8.36064 0.261641C8.36413 0.261641 8.36762 0.261641 8.3746 0.261641L8.37111 0.265129ZM7.72573 0.666312C7.64898 0.826785 7.63851 1.01865 7.7048 1.20006C7.63851 1.01865 7.65247 0.826785 7.72573 0.666312ZM3.14178 2.51873C3.09643 2.51873 3.05108 2.52222 3.00922 2.53268C3.05457 2.52571 3.09643 2.51873 3.14178 2.51873ZM9.97235 11.2157C10.0875 11.261 10.1991 11.3133 10.3072 11.3727C10.1991 11.3168 10.0875 11.2645 9.97235 11.2157ZM1.03819 7.67131C1.01028 7.67131 0.978885 7.66433 0.950977 7.66433C0.950977 7.66433 0.954466 7.66433 0.957954 7.66433C0.985863 7.66433 1.01377 7.66782 1.03819 7.67131ZM0.773062 7.68875C0.773062 7.68875 0.745153 7.69573 0.731199 7.7027C0.745153 7.69921 0.759107 7.69224 0.773062 7.68875ZM0.581192 7.77596C0.581192 7.77596 0.574215 7.77945 0.570726 7.78294C0.574215 7.78294 0.577703 7.77945 0.581192 7.77596ZM0.434673 7.90155C0.434673 7.90155 0.41723 7.92597 0.406764 7.93644C0.41723 7.92597 0.424207 7.91202 0.434673 7.90155ZM14.2214 22.5953C14.2214 22.5953 14.2388 22.6197 14.2493 22.6302C14.2388 22.6197 14.2319 22.6058 14.2214 22.5953ZM14.3819 22.7523C14.3819 22.7523 14.3888 22.7558 14.3923 22.7593C14.3888 22.7593 14.3854 22.7558 14.3819 22.7523ZM14.5493 22.8325C14.5493 22.8325 14.5772 22.843 14.5912 22.8465C14.5772 22.843 14.5633 22.8395 14.5493 22.8325ZM14.7656 22.8709C14.7935 22.8709 14.8249 22.8709 14.8528 22.8639C14.8249 22.8639 14.797 22.8709 14.7726 22.8709C14.7726 22.8709 14.7691 22.8709 14.7656 22.8709ZM15.4703 22.1871C15.4668 22.3685 15.3935 22.543 15.2645 22.6686C15.3935 22.5395 15.4668 22.3685 15.4703 22.1871C15.4703 22.0964 15.4563 22.0057 15.4215 21.915C15.4563 22.0057 15.4738 22.0964 15.4703 22.1871ZM19.9042 20.6871C19.9042 20.6871 19.9112 20.6871 19.9147 20.6871C19.9147 20.6871 19.9077 20.6871 19.9042 20.6871ZM20.1798 20.6347C20.2636 20.5998 20.3438 20.551 20.4101 20.4812C20.3403 20.551 20.2636 20.5998 20.1798 20.6347ZM22.1055 15.4647C22.1334 15.4647 22.1578 15.4682 22.1857 15.4682C22.1822 15.4682 22.1788 15.4682 22.1718 15.4682C22.1509 15.4682 22.1264 15.4647 22.1055 15.4612V15.4647ZM22.402 15.4298C22.402 15.4298 22.3776 15.4403 22.3671 15.4438C22.3811 15.4403 22.3916 15.4368 22.402 15.4298ZM22.7055 15.217C22.7055 15.217 22.723 15.1926 22.7334 15.1821C22.7265 15.1926 22.716 15.2066 22.7055 15.217Z" fill="black"/>
<path d="M15.0794 10.061H21.9274C22.4577 10.061 22.8868 9.63187 22.8868 9.10161C22.8868 8.57135 22.4577 8.14226 21.9274 8.14226H15.0794C15.0306 8.14226 14.9922 8.10389 14.9922 8.05505V1.20704C14.9922 0.676777 14.5631 0.247687 14.0329 0.247687C13.5026 0.247687 13.0735 0.676777 13.0735 1.20704V8.05505C13.0735 9.16092 13.9736 10.061 15.0794 10.061Z" fill="black"/>
<path d="M5.89061 16.281C5.63595 16.281 5.39175 16.3822 5.21384 16.5636L2.74744 19.03C2.37416 19.4033 2.37416 20.0138 2.74744 20.387C2.92884 20.5685 3.16955 20.6696 3.42421 20.6696C3.67888 20.6696 3.92308 20.5685 4.10099 20.387L6.56739 17.9206C6.7488 17.7392 6.84996 17.4985 6.84996 17.2439C6.84996 16.9892 6.7488 16.745 6.56739 16.5671C6.38599 16.3857 6.14528 16.2845 5.89061 16.2845V16.281ZM3.91959 20.1987C3.84982 20.2684 3.77307 20.3173 3.68934 20.3522C3.77307 20.3173 3.85331 20.2684 3.91959 20.1987Z" fill="black"/>
<path d="M17.2388 6.8515C17.4935 6.8515 17.7377 6.75033 17.9156 6.56893L20.382 4.10253C20.5634 3.92112 20.6646 3.68041 20.6646 3.42575C20.6646 3.17109 20.5634 2.92689 20.382 2.74897C20.2006 2.56757 19.9599 2.4664 19.7052 2.4664C19.4506 2.4664 19.2064 2.56757 19.0285 2.74897L16.5621 5.21537C16.1888 5.58865 16.1888 6.19914 16.5621 6.57242C16.7435 6.75382 16.9842 6.85499 17.2388 6.85499V6.8515ZM17.2388 6.58986C17.2842 6.58986 17.3295 6.58637 17.3714 6.5759C17.4377 6.56195 17.5005 6.53753 17.5598 6.50613C17.5005 6.53753 17.4342 6.56195 17.3714 6.5759C17.3261 6.58288 17.2842 6.58986 17.2388 6.58986ZM20.089 2.84316C20.0192 2.79781 19.946 2.7699 19.8692 2.74897C19.946 2.76642 20.0227 2.79781 20.089 2.84316ZM19.5727 2.742C19.618 2.73502 19.6599 2.72804 19.7052 2.72804C19.6599 2.72804 19.6145 2.73153 19.5727 2.742C19.4855 2.75944 19.3983 2.79432 19.3215 2.84316C19.3983 2.79083 19.4855 2.75944 19.5727 2.742Z" fill="black"/>
<path d="M1.2055 13.0751C0.675243 13.0751 0.246152 13.5042 0.246152 14.0344C0.246152 14.5647 0.675243 14.9938 1.2055 14.9938H8.05351C8.10235 14.9938 8.14073 15.0321 8.14073 15.081V21.929C8.14073 22.4592 8.56982 22.8883 9.10007 22.8883C9.63033 22.8883 10.0594 22.4592 10.0594 21.929V15.081C10.0594 13.9751 9.15938 13.0751 8.05351 13.0751H1.2055Z" fill="black"/>
</svg>
