<svg width="14" height="14" viewBox="0 0 14 14" fill="none" xmlns="http://www.w3.org/2000/svg">
<path d="M7.85574 0.896257C4.46188 0.727966 1.64301 3.36452 1.47472 6.70229H0.759482C0.4229 6.70229 0.226561 7.06691 0.394852 7.3474L1.88142 9.77359C2.04971 10.0401 2.44239 10.0401 2.61068 9.77359L4.09725 7.3474C4.26554 7.06691 4.0692 6.70229 3.73262 6.70229H2.91921C3.07348 4.19195 5.19114 2.21453 7.75757 2.32673C10.1557 2.4249 12.1471 4.43036 12.2173 6.84253C12.3014 9.49311 10.1697 11.6669 7.54721 11.6669C6.48136 11.6669 5.44357 11.3022 4.61614 10.6291C4.50395 10.5309 4.33566 10.5449 4.23749 10.6571L3.64847 11.3163C3.53628 11.4284 3.5503 11.6248 3.67652 11.723C4.77041 12.6205 6.13076 13.1114 7.56123 13.1114C11.0112 13.1114 13.802 10.2364 13.6618 6.74436C13.5215 3.63098 10.9691 1.05052 7.85574 0.896257Z" fill="black"/>
<path d="M7.86974 3.53282H7.23865C7.11244 3.53282 7.01427 3.63099 7.01427 3.75721V4.31818L6.94414 4.3322C6.14476 4.51452 5.61184 5.2578 5.68196 6.08523C5.76611 6.91266 6.50939 7.55777 7.36487 7.55777H7.7856C7.93986 7.55777 8.08011 7.62789 8.17828 7.74009C8.27645 7.85228 8.33254 8.00655 8.31852 8.14679C8.29047 8.41325 8.03803 8.62361 7.74353 8.62361H7.18256C7.02829 8.62361 6.88805 8.51142 6.84598 8.35715C6.81793 8.25898 6.73378 8.18886 6.62159 8.18886H5.97647C5.90635 8.18886 5.85026 8.21691 5.80818 8.25898C5.76611 8.30106 5.75209 8.37118 5.75209 8.42727C5.82221 9.05836 6.29903 9.57726 6.93012 9.68945L6.98622 9.70348V10.2504C6.98622 10.3766 7.08439 10.4748 7.2106 10.4748H7.84169C7.96791 10.4748 8.06608 10.3766 8.06608 10.2504V9.66141L8.12218 9.64738C8.80937 9.47909 9.31424 8.9041 9.38436 8.23094C9.42643 7.76814 9.27217 7.31936 8.96363 6.96876C8.6551 6.63217 8.22035 6.43584 7.75755 6.43584H7.2667C7.11244 6.43584 6.97219 6.36571 6.87402 6.25352C6.77585 6.14133 6.71976 5.98706 6.73378 5.83279C6.76183 5.56633 7.01427 5.35597 7.30877 5.35597H7.86974C8.02401 5.35597 8.16425 5.46816 8.20632 5.62243C8.23437 5.7206 8.31852 5.80475 8.43071 5.80475H9.07583C9.14595 5.80475 9.20204 5.7767 9.24412 5.73462C9.28619 5.69255 9.31424 5.62243 9.30021 5.56633C9.23009 4.93524 8.75327 4.41635 8.12218 4.30415L8.06608 4.29013V3.74318C8.09413 3.63099 7.99596 3.53282 7.86974 3.53282Z" fill="black"/>
</svg>
