<svg width="14" height="14" viewBox="0 0 14 14" fill="none" xmlns="http://www.w3.org/2000/svg">
<path d="M2.19894 11.3075C2.91272 12.5438 4.2429 13.312 5.67042 13.312H8.3299C9.75746 13.312 11.0875 12.5438 11.8014 11.3075L13.1315 9.00415C13.8453 7.76792 13.8453 6.23221 13.1315 4.99585L11.8014 2.69247C11.0876 1.45625 9.75743 0.687958 8.3299 0.687958H5.67042C4.24286 0.687958 2.91279 1.45621 2.19894 2.69247L0.868832 4.99512C0.155051 6.23135 0.155051 7.76706 0.868832 9.00342L2.19894 11.3075ZM2.11007 5.71191L3.44018 3.40853C3.89884 2.61448 4.75308 2.12071 5.67035 2.12071H8.32983C9.24715 2.12071 10.1014 2.61377 10.56 3.40853L11.8901 5.71191C12.3488 6.50595 12.3488 7.49278 11.8901 8.28681L10.56 10.5902C10.1014 11.3842 9.24711 11.878 8.32983 11.878H5.67035C4.75304 11.878 3.8988 11.3849 3.44018 10.5902L2.11007 8.28681C1.65141 7.49276 1.65141 6.50665 2.11007 5.71191Z" fill="black"/>
<path d="M6.99954 9.80258C8.54465 9.80258 9.8023 8.54556 9.8023 6.99982C9.8023 5.45471 8.54457 4.19705 6.99954 4.19705C5.45451 4.19705 4.19678 5.45478 4.19678 6.99982C4.19678 8.54485 5.45451 9.80258 6.99954 9.80258ZM6.99954 5.63026C7.75489 5.63026 8.36906 6.24444 8.36906 6.99978C8.36906 7.75511 7.75488 8.36929 6.99954 8.36929C6.24421 8.36929 5.63003 7.75511 5.63003 6.99978C5.63003 6.24444 6.24421 5.63026 6.99954 5.63026Z" fill="black"/>
</svg>
