<svg width="16" height="16" viewBox="0 0 16 16" fill="none" xmlns="http://www.w3.org/2000/svg">
<path fill-rule="evenodd" clip-rule="evenodd" d="M15.5239 15.0132C16.0522 14.4323 16.1537 13.5562 15.7638 12.9283L15.7299 12.8831C15.034 12.0768 14.179 11.4861 13.3521 10.9148L13.3509 10.914L13.329 10.8988C12.9225 10.6176 12.5052 10.329 12.1153 10.0182C12.7663 8.97966 13.1108 7.77822 13.1094 6.55225C13.1094 2.93899 10.1693 0 6.55474 0C2.94018 0 0 2.93904 0 6.55225C0 10.1655 2.94013 13.105 6.55474 13.105C7.77922 13.1076 8.97979 12.7647 10.0187 12.1161C10.3358 12.5126 10.6296 12.9375 10.9153 13.3514L10.9197 13.3579C11.4903 14.1829 12.0804 15.036 12.8853 15.7303L12.9311 15.7636C13.1876 15.9207 13.4828 16.0025 13.7832 15.9999C14.2383 15.9986 14.6769 15.8285 15.014 15.5228L15.5239 15.0132ZM6.55275 9.99787C8.49581 9.99787 10.0709 8.42299 10.0709 6.4805C10.0709 4.53802 8.49586 2.96334 6.55275 2.96334C4.60983 2.96334 3.03477 4.53802 3.03477 6.4805C3.03477 8.42299 4.60978 9.99787 6.55275 9.99787Z" fill="black"/>
</svg>
