<svg width="16" height="20" viewBox="0 0 16 20" fill="none" xmlns="http://www.w3.org/2000/svg">
<path fill-rule="evenodd" clip-rule="evenodd" d="M10.5246 10.5993H5.47496C2.96529 10.5993 0.930424 12.6344 0.930424 15.1439V16.5753C0.929161 17.1408 1.24477 17.661 1.74593 17.921L1.7472 17.9223C5.83379 20.0179 9.99342 20.0356 14.2326 17.9172H14.2338C14.7438 17.6597 15.0657 17.1371 15.0657 16.5664C15.0695 16.0021 15.0695 16.0982 15.0695 15.1439C15.0695 12.6342 13.0341 10.5993 10.5246 10.5993ZM7.9998 0.5C5.49138 0.5 3.45526 2.53628 3.45526 5.04454C3.45526 7.55279 5.49154 9.58908 7.9998 9.58908C10.508 9.58908 12.5443 7.55279 12.5443 5.04454C12.5443 2.53628 10.508 0.5 7.9998 0.5Z" fill="black"/>
</svg>
